<?xml version="1.0" encoding="UTF-8" standalone="no"?>
<!-- Created with Inkscape (http://www.inkscape.org/) -->

<svg
   width="178.18629mm"
   height="45.677765mm"
   viewBox="0 0 178.18629 45.677765"
   version="1.1"
   id="svg277"
   xmlns="http://www.w3.org/2000/svg"
   xmlnsSvg="http://www.w3.org/2000/svg">
  <defs
     id="defs274" />
  <g
     id="layer1"
     transform="translate(-15.987935,-125.84355)">
    <path
       style="fill:#000000;stroke-width:0.264583"
       d="m 137.91292,171.32378 c -1.65207,-0.66664 -3.00438,-4.05069 -3.00438,-7.51822 0,-2.75439 0.51746,-4.5012 1.76521,-5.95892 1.71789,-2.00696 4.52818,-2.73256 6.32939,-1.63419 l 0.81857,0.49915 0.30766,-2.02149 c 0.42921,-2.82006 0.43261,-2.81111 -0.71758,-1.88679 -1.18605,0.95313 -3.06759,1.58508 -4.71938,1.58508 -5.09014,0 -7.68927,-7.41686 -7.44919,-21.25694 0.11505,-6.63204 0.0739,-6.52431 2.49111,-6.52431 h 1.37048 l -0.2707,1.25677 c -0.3984,1.84971 -0.395,15.65656 0.004,17.95128 0.85737,4.92564 2.20794,7.25439 4.2023,7.24593 2.95493,-0.0125 5.17791,-3.08838 5.92464,-8.19773 0.57413,-3.92836 0.0782,-13.40767 -0.89847,-17.17274 l -0.34969,-1.34809 h 1.11947 c 0.61571,0 1.24292,0.14883 1.3938,0.33073 0.42815,0.51617 1.04216,4.19703 1.39537,8.36504 0.60222,7.10617 0.004,16.33126 -1.47135,22.69324 -0.39649,1.70964 -0.39035,1.799 0.25169,3.65915 0.36196,1.0487 0.88462,2.87947 1.16146,4.06839 l 0.50334,2.16167 -1.09117,0.80368 -1.09117,0.80367 -0.17539,-2.8558 c -0.0965,-1.5707 -0.28366,-3.13984 -0.41598,-3.48699 -0.2141,-0.56166 -0.322,-0.40139 -0.9798,1.45521 -1.9779,5.58256 -4.11127,7.90865 -6.40466,6.98322 z m 1.83705,-1.53057 c 0.8252,-0.91184 1.83233,-3.56175 2.76005,-7.26214 l 0.93808,-3.74166 -0.71266,-0.613 c -0.81765,-0.70332 -1.64398,-0.77139 -2.91536,-0.24018 -1.96569,0.82132 -3.13181,4.67344 -2.56612,8.47687 0.52145,3.506 1.35749,4.63816 2.49601,3.38011 z m -70.114515,-4.26588 c -1.185619,-0.74491 -1.731594,-1.9636 -1.875821,-4.18709 -0.121934,-1.87977 -0.112094,-1.91624 0.589052,-2.18281 0.392184,-0.14911 0.95742,-0.27111 1.256088,-0.27111 0.514985,0 0.533604,0.10055 0.360561,1.94719 -0.225417,2.40553 0.222406,3.75638 1.338125,4.0364 1.608595,0.40374 2.435265,-2.32192 2.834868,-9.34696 l 0.108542,-1.90817 -0.752488,1.03878 c -1.352709,1.86736 -3.400158,2.41332 -4.589634,1.22385 -1.209014,-1.20902 -1.346198,-2.53356 -1.026766,-9.91361 l 0.173601,-4.01081 h 1.023572 c 1.44534,0 1.637903,0.63377 1.323719,4.35673 -0.308311,3.65338 -0.239276,6.97949 0.160165,7.71683 0.788062,1.45468 2.11115,0.82927 2.994911,-1.41566 0.53276,-1.35332 0.614527,-2.10525 0.708856,-6.51874 l 0.10663,-4.98896 0.809442,0.16188 c 1.538111,0.30763 1.521699,0.23472 1.517148,6.73958 -0.0043,6.13577 -0.305745,11.27743 -0.803789,13.70962 -0.514982,2.51491 -2.015632,4.05257 -4.133252,4.23518 -0.960077,0.0828 -1.486439,-0.0218 -2.12353,-0.42212 z m -22.036061,-2.00677 c -0.28026,-0.33769 -0.327631,-2.70935 -0.242048,-12.1182 l 0.10641,-11.69833 -0.743329,-0.0852 c -0.986014,-0.11307 -0.868534,-0.93922 0.150278,-1.05681 l 0.725341,-0.0837 0.0058,-2.82669 c 0.0082,-4.00174 0.956742,-5.86941 2.980863,-5.86941 1.650188,0 2.224469,0.74855 2.531616,3.29984 0.22753,1.88997 0.03444,2.17859 -1.15497,1.72637 -0.540713,-0.20558 -0.65981,-0.43008 -0.662773,-1.24935 -0.0051,-1.39573 -0.257711,-2.18936 -0.697012,-2.18936 -0.51326,0 -0.558252,0.22497 -0.753557,3.76785 l -0.171245,3.1064 1.209586,-0.1658 c 0.988645,-0.13551 1.209588,-0.0907 1.209588,0.24541 0,0.95046 -0.321704,1.24823 -1.348555,1.24823 h -1.027355 l -0.06881,12.10468 -0.06882,12.10469 -0.816284,0.0797 c -0.503508,0.0491 -0.949807,-0.0812 -1.164744,-0.34021 z M 92.972089,159.058 c -2.60804,-1.21618 -4.78913,-4.20907 -5.813208,-7.97689 -0.67555,-2.4855 -0.834702,-7.82977 -0.304022,-10.20903 0.79285,-3.55468 1.869742,-5.26909 3.309723,-5.26909 0.412517,0 0.571585,-0.22654 0.696682,-0.99219 0.339702,-2.07909 0.472393,-2.5935 0.969828,-3.75976 0.626377,-1.46857 1.848501,-2.78647 3.257664,-3.51297 1.481193,-0.76363 4.180623,-0.92277 5.909854,-0.34841 4.69552,1.5596 7.41673,8.33284 6.65295,16.55956 -0.72277,7.78504 -4.01404,13.83737 -8.556991,15.73554 -1.501252,0.62726 -4.531765,0.51502 -6.12248,-0.22676 z m 4.703024,-0.81775 c 0.957797,-0.21015 2.590337,-1.7004 3.619207,-3.30376 3.92084,-6.11011 4.56512,-19.29886 1.20293,-24.62491 -1.07086,-1.69634 -2.37265,-2.5138 -4.003193,-2.5138 -1.299737,0 -1.483365,0.0834 -2.602815,1.18205 -1.941483,1.90542 -2.382816,3.36053 -2.36992,7.81378 0.01005,3.47279 0.06439,3.8607 0.869759,6.20999 0.889503,2.59472 1.444276,3.6769 2.74819,5.36084 0.420553,0.54312 0.689751,1.10867 0.598218,1.25677 -0.09153,0.1481 -0.629587,0.26928 -1.195676,0.26928 -0.85034,0 -1.143214,-0.14948 -1.684848,-0.8599 -1.681555,-2.20557 -3.322906,-6.6524 -4.028446,-10.91406 l -0.175213,-1.05833 -0.393348,0.92604 c -1.294686,3.04802 -1.933892,10.66519 -1.154554,13.75833 0.687808,2.72987 2.266693,5.03831 4.105592,6.00266 0.743352,0.38982 2.926168,0.84158 3.465259,0.71718 0.145521,-0.0336 0.595009,-0.13356 0.998858,-0.22216 z m -76.105492,-0.26936 c -2.118052,-0.87082 -2.89869,-1.63347 -2.698186,-2.63599 0.08532,-0.42659 0.209417,-0.82991 0.275774,-0.89627 0.06636,-0.0664 0.544677,0.25165 1.062934,0.70669 1.664263,1.46124 2.989738,2.0006 4.943065,2.01142 1.38832,0.008 1.92647,-0.10872 2.513542,-0.54371 1.334954,-0.98913 1.937631,-2.15401 1.937631,-3.74512 0,-2.62011 -0.835988,-3.60467 -6.35,-7.47856 -3.374318,-2.37063 -5.765987,-4.7077 -6.63044,-6.47907 -0.533791,-1.0938 -0.643867,-1.71241 -0.635583,-3.57188 0.0084,-1.88453 0.129601,-2.51123 0.747996,-3.86752 1.754596,-3.84828 5.674036,-5.88893 10.756597,-5.6004 3.322402,0.18861 6.053791,1.81551 7.276497,4.33411 0.298065,0.61397 0.544138,1.80525 0.606821,2.93771 l 0.105442,1.90494 -0.888145,0.54147 c -0.488479,0.29781 -1.160135,0.54191 -1.49257,0.54245 -0.572445,9.3e-4 -0.595134,-0.069 -0.428837,-1.32265 0.593731,-4.47576 -3.670712,-8.00325 -8.325356,-6.88662 -2.697024,0.64701 -4.405387,2.57122 -5.222484,5.88232 -0.391476,1.58637 -0.391601,1.84626 -0.0015,3.18804 0.605761,2.08374 2.238732,3.75939 6.410757,6.57828 5.077129,3.43045 6.423679,5.18781 6.502933,8.48692 0.05388,2.24293 -0.383728,3.40555 -1.759016,4.67324 -2.100813,1.93647 -5.750184,2.45622 -8.707838,1.2402 z m 40.597713,-1.89838 c -0.473202,-0.60157 -0.550926,-1.08213 -0.567012,-3.50573 -0.01744,-2.62803 -0.04092,-2.74812 -0.365133,-1.86808 -1.33512,3.62404 -3.37025,5.80637 -5.414712,5.80637 -1.141827,0 -2.540534,-1.31881 -3.029675,-2.85661 -0.650456,-2.04496 -0.747574,-3.30709 -0.431882,-5.61278 0.58999,-4.30904 1.874888,-6.34728 4.00131,-6.34728 1.353069,0 2.204503,0.87906 2.784774,2.87513 0.521473,1.7938 0.353452,4.5289 -0.380087,6.18719 -0.58374,1.31964 -1.913136,2.5406 -3.003727,2.75872 -0.900041,0.18001 -0.929662,0.32906 -0.217334,1.09366 1.13993,1.22357 2.656633,0.35319 4.070291,-2.33579 0.345549,-0.65729 0.763987,-1.69908 0.929865,-2.31511 0.165878,-0.61603 0.459018,-1.12005 0.65142,-1.12005 0.485529,0 0.683051,-1.96221 0.685816,-6.81302 l 0.0023,-4.03489 h -2.268357 c -2.017657,0 -2.258581,-0.0512 -2.179886,-0.46302 0.07425,-0.38859 0.438898,-0.47538 2.268357,-0.53987 l 2.179886,-0.0769 v -3.15926 c 0,-3.07157 0.0168,-3.16347 0.60564,-3.31126 0.333102,-0.0836 0.9413,-0.0244 1.351552,0.13159 l 0.745911,0.28359 -0.190905,2.92232 -0.190905,2.92231 2.278938,-0.18491 c 1.92055,-0.15583 2.278936,-0.12323 2.278936,0.20734 0,0.84224 -0.91087,1.26802 -2.712664,1.26802 h -1.744959 l -0.09523,2.18281 c -0.246134,5.64168 -0.224327,14.75052 0.03531,14.75052 0.361421,0 1.130911,-1.56246 1.856825,-3.77031 0.358217,-1.08951 0.733541,-1.78594 0.962496,-1.78594 0.530749,0 0.472064,0.49397 -0.31931,2.68784 -1.490469,4.13193 -3.265397,5.69187 -4.57785,4.02335 z m -5.741432,-3.80899 c 0.927024,-1.1017 1.221108,-2.35229 1.222836,-5.20008 0.0019,-2.95614 -0.432893,-4.29414 -1.401088,-4.31265 -0.876671,-0.0168 -2.229199,8.28736 -1.611836,9.89618 0.253838,0.66149 1.055282,0.48982 1.790088,-0.38345 z m 132.325348,4.32671 c -1.54522,-0.4291 -2.76203,-2.22749 -2.79131,-4.12541 -0.0125,-0.80885 -0.0534,-0.77205 -0.76478,0.68824 -1.37798,2.82854 -3.11544,3.90765 -4.07831,2.53296 l -0.38837,-0.55447 -0.79876,0.59055 c -1.02177,0.75542 -2.72594,0.7908 -3.68274,0.0764 -0.96547,-0.72082 -1.69387,-2.25258 -1.90767,-4.0116 -0.18857,-1.5515 -0.24488,-1.52292 -0.93802,0.47612 -0.58399,1.68423 -1.58547,3.30208 -2.35697,3.80759 -0.36465,0.23893 -1.1343,0.43441 -1.71033,0.43441 -2.01321,0 -3.17541,-1.7096 -3.6937,-5.43341 -0.16317,-1.17234 -0.27244,-1.442 -0.42502,-1.04888 -2.21751,5.71346 -4.95658,7.8162 -7.3939,5.6762 -1.55939,-1.36916 -2.21409,-4.24302 -1.74579,-7.6633 0.58999,-4.30904 1.87489,-6.34728 4.00131,-6.34728 1.35307,0 2.2045,0.87906 2.78478,2.87513 0.52147,1.7938 0.35345,4.5289 -0.38009,6.18719 -0.58374,1.31964 -1.91314,2.5406 -3.00373,2.75872 -0.90004,0.18001 -0.92966,0.32906 -0.21733,1.09366 1.13993,1.22357 2.65663,0.35319 4.07029,-2.33579 0.34555,-0.65729 0.76399,-1.69908 0.92986,-2.31511 0.16588,-0.61603 0.45936,-1.12005 0.65217,-1.12005 0.25801,0 0.39864,-0.75099 0.53263,-2.84427 0.49693,-7.76358 2.27526,-14.42283 4.1144,-15.40711 0.80661,-0.43169 2.08183,-0.31337 2.64016,0.24496 0.70317,0.70317 0.91023,2.05609 0.7269,4.74962 -0.29844,4.38471 -2.04629,9.28165 -4.01587,11.25123 l -0.98811,0.98811 0.11661,2.69154 c 0.12806,2.9559 0.50388,4.07851 1.44439,4.31456 1.34102,0.33657 2.59791,-1.3632 3.52591,-4.7683 0.21547,-0.79062 0.52744,-1.33896 0.80276,-1.41096 0.32063,-0.0838 0.4966,-0.50853 0.61103,-1.47469 0.19388,-1.63701 1.377,-4.08335 2.29526,-4.74592 1.11553,-0.8049 2.54581,-0.9014 3.45017,-0.23277 l 0.77696,0.57443 v -6.35792 -6.35792 h 0.90714 c 1.09489,0 1.83917,0.65228 1.62999,1.4285 -0.0824,0.30573 -0.23028,5.66493 -0.32866,11.90933 -0.13687,8.68806 -0.10564,11.3082 0.13303,11.16069 0.44111,-0.27262 1.21625,-1.87554 1.78592,-3.69313 0.26751,-0.85354 0.66867,-1.60637 0.89147,-1.67295 0.22279,-0.0666 0.61181,-0.23144 0.8645,-0.36634 0.25269,-0.1349 0.77359,-0.24527 1.15755,-0.24527 0.64936,0 0.68514,0.0601 0.51228,0.8599 -0.58047,2.68585 -0.37934,4.32549 0.66855,5.45028 1.37916,1.48035 3.47922,-0.22796 2.88938,-2.35038 -0.14018,-0.5044 -1.10438,-1.98865 -2.14267,-3.29834 -2.07001,-2.61107 -2.35389,-3.1572 -2.35389,-4.52828 0,-2.09558 1.52614,-3.44213 3.63219,-3.20475 2.18428,0.2462 3.47802,2.37525 2.58584,4.25538 -0.25162,0.53026 -0.56299,0.98197 -0.69193,1.00379 -0.81403,0.13781 -0.8594,0.0496 -0.79433,-1.54471 0.0828,-2.02804 -0.27008,-2.79073 -1.23897,-2.67802 -0.48134,0.056 -0.78116,0.30008 -0.94522,0.7695 -0.42871,1.22667 0.0435,2.51629 1.6718,4.56528 2.00828,2.5272 2.39541,3.31214 2.39421,4.8544 -0.001,1.41018 -0.64189,2.70529 -1.67271,3.3807 -0.6824,0.44713 -2.87152,0.73194 -3.75026,0.48791 z m -9.42363,-1.83953 c 1.1322,-0.79302 1.35384,-1.86069 1.35384,-6.52162 0,-3.98605 -0.0422,-4.36952 -0.53948,-4.90329 -0.72057,-0.77344 -1.13848,-0.73009 -1.92044,0.19922 -0.92962,1.10479 -1.37266,3.15619 -1.37474,6.36548 -0.002,3.11502 0.17291,4.01117 0.93097,4.76923 0.63347,0.63347 0.76437,0.64115 1.54985,0.091 z m -19.18506,-2.48718 c 0.37115,-0.44108 0.79779,-1.24475 0.94809,-1.78594 0.35825,-1.28993 0.35381,-5.57723 -0.007,-6.61181 -0.28235,-0.80994 -0.87823,-1.25015 -1.32143,-0.97623 -0.70951,0.43849 -1.87133,7.88302 -1.47604,9.45796 0.24209,0.96456 1.0029,0.93014 1.85623,-0.084 z m 9.68969,-8.76017 c 0.4741,-1.02857 1.08652,-2.72092 1.36092,-3.76077 0.94761,-3.5909 0.92709,-8.57171 -0.0329,-7.97843 -0.56428,0.34874 -1.35358,3.34275 -2.102,7.97339 -0.4439,2.74646 -0.86865,5.34024 -0.94391,5.76394 -0.13123,0.73891 -0.11655,0.75202 0.35952,0.32119 0.27298,-0.24705 0.88423,-1.29074 1.35833,-2.31932 z M 37.874853,156.31864 c -0.95619,-0.18439 -2.14162,-1.58842 -2.575949,-3.05096 -0.843269,-2.8396 -0.327392,-7.67521 1.040368,-9.75199 1.192507,-1.81067 3.416933,-2.3397 4.693859,-1.11633 0.722918,0.6926 0.742082,0.69602 0.742082,0.13229 0,-0.44085 0.157528,-0.57866 0.661459,-0.57866 0.698569,0 1.835013,0.92243 1.601644,1.30003 -0.0756,0.12232 -0.207521,2.76712 -0.293163,5.87733 l -0.155712,5.65493 0.652949,-0.71046 c 0.359121,-0.39076 0.972729,-1.67068 1.363573,-2.84427 0.443357,-1.33128 0.851717,-2.13381 1.085769,-2.13381 0.496925,0 0.473329,0.42553 -0.119056,2.14734 -0.672489,1.95462 -1.718516,3.96977 -2.362865,4.55199 -0.742592,0.67101 -2.192965,0.5084 -2.588763,-0.29022 -0.275692,-0.55629 -0.326746,-0.56833 -0.667493,-0.15746 -0.367413,0.44303 -1.884751,1.18924 -2.278697,1.12065 -0.113816,-0.0198 -0.473816,-0.0875 -0.800005,-0.1504 z m 2.870449,-2.48504 c 0.341519,-0.68248 0.493699,-1.95801 0.628763,-5.27003 0.172683,-4.23449 0.160241,-4.39246 -0.40232,-5.10763 -1.734936,-2.20562 -3.580469,1.41768 -3.546978,6.96371 0.01114,1.84282 0.140833,2.77431 0.486069,3.49077 0.741524,1.53887 2.043623,1.50358 2.834465,-0.0768 z m 70.086158,2.41901 c -0.33632,-0.21866 -0.39688,-1.3291 -0.39688,-7.27814 v -7.02012 l 0.93927,-6.9e-4 c 1.21481,-8.7e-4 1.57405,0.38814 1.57527,1.70588 l 0.001,1.07156 0.49834,-0.81721 c 1.58684,-2.60237 4.27954,-2.85209 5.45274,-0.50569 0.55027,1.10053 0.54846,1.04131 0.3071,10.05416 -0.0408,1.52504 -0.0167,1.5875 0.61378,1.5875 0.77811,0 1.60152,-1.32745 2.524,-4.06903 0.39179,-1.1644 0.74648,-1.78295 1.05777,-1.84468 1.24773,-0.24746 -0.98163,5.45244 -2.62191,6.70354 -0.85765,0.65416 -2.33404,0.8846 -2.96561,0.46289 -0.89374,-0.59676 -1.02816,-1.49291 -0.96178,-6.41209 0.0744,-5.51325 -0.0811,-6.21771 -1.37219,-6.21771 -1.04005,0 -1.61827,0.87121 -2.28283,3.43958 -0.45109,1.74335 -0.53323,2.74664 -0.46571,5.68854 l 0.082,3.57188 -0.79375,0.0689 c -0.43656,0.0379 -0.97234,-0.0472 -1.19062,-0.1891 z m 39.70226,-0.26195 c -0.28293,-0.28292 -0.59756,-0.95761 -0.69918,-1.49931 -0.19929,-1.06228 0.30918,-11.88068 0.5789,-12.3171 0.18623,-0.30133 1.3797,-0.0619 1.91787,0.38472 0.26246,0.21782 0.31779,0.69632 0.20406,1.76467 -0.35949,3.37703 -0.5066,10.32935 -0.21857,10.32935 0.49427,0 1.09493,-1.10504 1.83368,-3.37344 0.40484,-1.24307 0.85827,-2.18281 1.05322,-2.18281 0.47445,0 0.42817,0.72603 -0.1542,2.4187 -1.04364,3.03341 -2.42009,4.98963 -3.51084,4.98963 -0.2698,0 -0.72202,-0.23148 -1.00494,-0.51441 z m -0.0148,-16.41892 c -1.17892,-1.17892 -0.37746,-3.70417 1.17562,-3.70417 0.83453,0 1.47021,0.9152 1.47021,2.11667 0,1.86936 -1.47748,2.75585 -2.64583,1.5875 z"
       id="path179" />
  </g>
</svg>
